<?xml version="1.0" standalone="no"?>
<!DOCTYPE svg PUBLIC "-//W3C//DTD SVG 20010904//EN"
 "http://www.w3.org/TR/2001/REC-SVG-20010904/DTD/svg10.dtd">
<svg version="1.0" xmlns="http://www.w3.org/2000/svg"
 width="706.000000pt" height="637.000000pt" viewBox="0 0 706.000000 637.000000"
 preserveAspectRatio="xMidYMid meet">

<g transform="translate(0.000000,637.000000) scale(0.100000,-0.100000)"
fill="#000000" stroke="none">
<path d="M3344 6340 c-515 -79 -1037 -308 -1441 -633 -388 -312 -663 -656
-882 -1102 -254 -517 -356 -1055 -311 -1643 6 -73 20 -185 31 -250 12 -64 23
-142 26 -172 5 -53 3 -57 -40 -115 -24 -33 -169 -184 -322 -335 -394 -391
-463 -475 -333 -409 52 26 352 215 538 339 295 196 631 399 715 432 48 19 75
9 75 -26 0 -37 -117 -189 -330 -431 -132 -150 -180 -212 -180 -237 0 -25 6
-23 195 62 228 103 306 127 319 95 15 -40 -14 -74 -340 -406 -243 -248 -265
-279 -160 -230 224 104 313 137 348 127 13 -3 51 -44 88 -93 315 -424 787
-796 1271 -1002 302 -128 641 -211 988 -242 167 -15 541 -6 701 16 670 93
1305 401 1784 865 474 459 782 1030 905 1680 73 383 74 844 1 1194 -63 306
-129 500 -261 774 -38 78 -69 155 -69 170 0 40 46 105 156 222 119 126 164
182 164 204 0 15 -3 15 -32 0 -36 -19 -260 -167 -488 -325 -338 -232 -540
-359 -572 -359 -37 0 -14 34 115 167 167 173 253 256 477 462 36 33 62 62 59
65 -10 10 -86 -27 -239 -116 -196 -115 -243 -138 -285 -138 -31 0 -35 3 -35
25 0 29 36 65 200 203 63 53 124 106 135 118 11 11 70 60 130 109 194 156 375
319 375 337 0 10 -24 5 -80 -17 -19 -7 -84 -32 -145 -55 -111 -42 -231 -89
-295 -117 -59 -26 -172 -63 -193 -63 -10 0 -46 26 -80 58 -327 309 -765 565
-1175 686 -208 62 -304 84 -473 110 -155 24 -187 26 -510 25 -323 -1 -355 -3
-525 -29z m284 -1546 l132 -6 -6 -157 c-3 -86 -7 -161 -9 -168 -3 -9 -110 -10
-453 -6 l-449 6 -6 -59 c-12 -110 -10 -958 2 -962 6 -2 57 12 114 31 56 19
154 51 217 71 63 20 164 53 223 73 59 19 111 32 115 28 9 -8 3 -328 -6 -336
-7 -6 -56 -23 -277 -94 -60 -19 -233 -76 -384 -125 -151 -50 -280 -90 -288
-90 -7 0 -13 -4 -13 -9 0 -9 120 -21 217 -21 l63 0 0 -338 c0 -187 -3 -393 -6
-459 l-7 -121 -131 -41 c-72 -23 -138 -45 -146 -49 -31 -13 183 -20 670 -21
278 -1 511 -5 518 -9 9 -7 12 -48 10 -173 l-3 -164 -650 3 c-419 1 -669 6
-705 13 -69 14 -114 35 -168 77 -82 65 -76 -47 -69 1267 4 644 10 1297 14
1451 l6 282 -51 54 c-29 30 -49 58 -45 62 8 8 1356 -1 1571 -10z m1827 -13
l130 -6 3 -157 c2 -143 1 -162 -21 -225 -38 -106 -102 -278 -142 -383 -36 -91
-58 -150 -130 -345 -30 -82 -59 -160 -101 -270 -8 -22 -21 -58 -28 -80 -7 -22
-28 -79 -46 -125 -18 -47 -38 -101 -46 -120 -7 -19 -28 -75 -47 -125 -19 -49
-56 -148 -82 -220 -26 -71 -62 -168 -79 -215 -18 -47 -64 -168 -102 -269 -51
-137 -73 -185 -89 -191 -11 -5 -74 -25 -140 -45 -159 -49 -176 -56 -169 -66 3
-5 220 -10 487 -10 265 -1 532 -4 592 -8 l110 -6 0 -165 0 -165 -680 -3 c-374
-1 -734 1 -800 5 l-120 8 0 170 0 170 73 195 c39 107 79 207 87 222 8 14 15
32 15 39 0 12 33 103 105 289 18 47 38 99 43 115 27 78 73 202 82 220 5 11 22
56 36 99 15 44 33 91 41 105 7 15 13 31 13 36 0 6 14 44 31 85 17 41 37 93 44
115 8 22 20 58 29 80 8 22 32 85 52 140 20 55 46 127 59 160 12 33 52 139 87
235 96 257 90 245 134 258 22 6 59 18 84 26 25 9 78 26 119 39 133 42 111 47
-197 47 -153 0 -421 3 -595 7 l-317 6 0 169 0 168 673 -1 c369 -1 731 -4 802
-8z"/>
</g>
</svg>
